<?xml version="1.0" standalone="no"?>
<!DOCTYPE svg PUBLIC "-//W3C//DTD SVG 20010904//EN"
 "http://www.w3.org/TR/2001/REC-SVG-20010904/DTD/svg10.dtd">
<svg version="1.0" xmlns="http://www.w3.org/2000/svg"
 width="260.000000pt" height="260.000000pt" viewBox="0 0 260.000000 260.000000"
 preserveAspectRatio="xMidYMid meet">
<metadata>
Created by potrace 1.14, written by Peter Selinger 2001-2017
</metadata>
<g transform="translate(0.000000,260.000000) scale(0.100000,-0.100000)"
fill="#000000" stroke="none">
<path d="M1186 2568 c3 -5 2 -8 -3 -9 -4 0 -26 -2 -48 -5 -22 -2 -52 -6 -67
-9 -16 -3 -42 -8 -59 -11 -17 -3 -63 -17 -103 -30 -39 -13 -75 -26 -81 -27
-31 -8 -105 -43 -105 -49 0 -5 -9 -8 -20 -8 -11 0 -20 -4 -20 -10 0 -5 -4 -10
-10 -10 -9 0 -110 -58 -120 -70 -3 -3 -23 -19 -45 -35 -61 -45 -216 -200 -208
-208 3 -4 2 -7 -4 -7 -5 0 -30 -30 -56 -68 -49 -72 -131 -222 -121 -222 4 0 2
-6 -3 -12 -19 -23 -70 -191 -65 -210 1 -5 -1 -8 -6 -8 -4 0 -8 -15 -9 -33 -1
-17 -5 -50 -7 -72 -9 -61 -13 -245 -7 -245 3 0 7 -19 7 -43 1 -23 4 -55 7 -72
3 -16 8 -49 12 -73 4 -23 12 -42 17 -42 5 0 7 -4 3 -9 -5 -10 18 -92 35 -123
6 -10 10 -27 10 -38 0 -11 5 -20 11 -20 5 0 7 -4 4 -10 -3 -5 -2 -10 3 -10 6
0 13 -12 17 -27 3 -14 15 -38 26 -51 10 -14 19 -30 19 -37 0 -6 9 -20 20 -30
11 -10 17 -22 14 -26 -3 -5 -1 -9 4 -9 5 0 23 -21 40 -47 71 -110 243 -260
398 -348 73 -42 219 -105 254 -110 8 -1 22 -5 30 -8 18 -6 67 -19 95 -24 11
-2 34 -6 50 -9 17 -3 44 -6 60 -7 17 -1 33 -6 37 -12 5 -6 8 -5 8 3 0 7 5 10
11 6 20 -12 119 -12 112 0 -4 6 0 5 9 -2 12 -9 18 -10 23 -2 5 8 11 8 21 -1 8
-6 14 -8 14 -3 0 5 24 9 53 9 28 0 57 2 62 6 6 3 26 9 45 12 66 11 88 17 185
52 28 9 56 17 63 18 6 0 12 4 12 8 0 4 11 10 25 13 31 8 199 104 203 117 2 5
9 9 16 9 6 0 29 16 49 35 20 19 39 35 42 35 17 0 175 176 226 251 52 76 157
289 143 289 -3 0 1 10 7 22 11 21 23 62 34 113 13 65 17 93 19 117 0 16 5 28
10 28 6 0 5 5 -2 12 -6 6 -8 18 -3 27 15 30 1 294 -18 344 -8 20 -7 27 2 27 8
0 9 3 1 8 -6 4 -13 13 -15 20 -3 9 -18 1 -45 -25 -23 -21 -55 -49 -71 -63 -17
-14 -57 -48 -89 -77 -83 -73 -103 -90 -153 -131 -48 -40 -182 -152 -219 -183
-12 -10 -26 -19 -30 -19 -4 0 -14 -9 -22 -20 -8 -11 -20 -20 -26 -20 -7 0 -14
-4 -16 -8 -1 -4 -21 -21 -43 -37 -56 -42 -56 -42 -95 -75 -19 -16 -41 -30 -47
-30 -7 0 -13 -4 -13 -10 0 -5 -7 -10 -15 -10 -8 0 -15 -4 -15 -8 0 -9 -57 -44
-64 -40 -3 2 -11 -5 -18 -14 -12 -15 -200 -120 -223 -124 -5 -1 -23 -7 -40
-14 -16 -6 -32 -12 -35 -12 -3 0 -15 -4 -28 -9 -21 -8 -32 -1 -90 59 -81 83
-122 133 -122 150 0 7 -5 10 -10 7 -6 -3 -10 1 -10 9 0 9 -9 25 -19 35 -25 25
-17 31 22 20 94 -27 326 -29 369 -3 4 3 18 7 30 9 73 14 228 112 228 144 0 6
5 11 10 11 6 0 10 6 10 13 0 7 5 18 12 25 7 7 13 37 14 68 1 49 -2 59 -28 85
-28 27 -41 32 -93 32 -47 0 -62 -7 -129 -68 -54 -49 -137 -94 -180 -97 -14 -1
-26 -7 -26 -13 0 -6 -3 -7 -8 0 -4 6 -26 11 -50 12 -93 3 -161 60 -202 169 -8
20 -7 25 2 21 7 -2 21 0 30 4 10 6 19 5 23 -1 5 -8 11 -8 20 0 8 7 16 7 19 2
3 -6 21 -7 41 -2 19 4 37 4 40 0 2 -4 23 -4 45 0 22 4 42 5 44 1 3 -5 71 -6
71 -1 0 7 36 6 40 0 3 -5 15 -6 28 -4 12 3 28 5 35 5 6 -1 18 -1 25 -2 22 -1
131 9 156 15 42 10 91 50 102 85 17 50 14 169 -4 199 -5 6 -5 12 -1 12 3 0 1
7 -6 15 -6 8 -9 19 -5 25 3 5 2 10 -4 10 -5 0 -13 10 -17 23 -9 30 -70 108
-78 100 -3 -3 -6 2 -6 12 0 10 -3 16 -6 13 -3 -3 -17 5 -31 18 -14 13 -32 24
-39 24 -7 0 -14 4 -16 8 -5 12 -102 51 -143 58 -21 3 -47 8 -59 10 -35 8 -175
4 -201 -6 -17 -7 -25 -6 -25 1 0 8 -4 8 -12 1 -7 -5 -29 -13 -48 -17 -19 -4
-48 -14 -63 -22 -41 -21 -48 -13 -27 30 10 21 19 39 19 40 9 30 27 67 34 67 4
0 5 5 2 10 -3 6 -1 10 6 10 7 0 10 3 6 6 -3 4 5 21 18 39 14 17 25 37 25 43 0
7 5 12 10 12 6 0 10 6 10 13 0 6 21 35 46 62 25 28 49 55 52 60 4 6 18 20 32
32 25 22 27 22 85 7 33 -8 66 -16 73 -16 6 -1 12 -4 12 -8 0 -4 6 -7 13 -7 14
0 207 -92 217 -103 10 -12 169 -100 180 -100 5 0 10 -3 10 -8 0 -4 28 -20 63
-35 34 -16 71 -33 82 -38 23 -11 157 -56 168 -57 4 0 20 -3 35 -7 89 -19 251
-28 268 -14 10 8 6 20 -22 59 -19 26 -52 67 -74 90 -22 23 -40 46 -40 51 0 5
-3 9 -7 9 -5 0 -26 17 -48 38 -48 46 -195 156 -195 146 0 -4 -8 0 -18 9 -14
13 -58 35 -84 42 -5 2 -10 4 -13 5 -3 1 -8 3 -12 5 -5 1 -16 5 -25 8 -26 10
-53 18 -56 18 -1 -1 -19 8 -39 19 -21 11 -41 20 -45 20 -4 0 -19 5 -35 12 -39
16 -54 20 -80 22 -13 0 -23 4 -23 7 0 3 -6 6 -12 6 -31 1 -99 12 -107 18 -5 3
-12 -1 -14 -7 -4 -10 -6 -10 -6 -1 -1 7 -8 10 -18 6 -9 -4 -14 -2 -11 3 3 5
-7 9 -23 10 -15 1 -27 -2 -25 -5 2 -3 -6 -6 -19 -6 -13 0 -21 3 -18 8 2 4 -3
7 -12 7 -10 0 -13 -5 -9 -12 4 -7 3 -8 -4 -4 -16 10 -91 13 -86 4z m86 -843
c18 -8 40 -21 49 -28 21 -16 60 -88 53 -99 -3 -4 0 -8 7 -8 7 0 9 -3 5 -7 -12
-13 -414 -11 -412 1 6 27 36 83 56 105 55 57 166 73 242 36z"/>
</g>
</svg>
